<svg class="diagram-root" style="background: #f5f6f6" xmlns="http://www.w3.org/2000/svg" xmlns:xlink="http://www.w3.org/1999/xlink"><style>.diagram-root { font-family: "Helvetica Neue", sans-serif; font-size: 12px; } .t { overflow: visible; } .t-bg { y: 40; fill: #fff;   } .th { fill: #005aa0;   } .tht { fill: #fff; font-size: 14px;  } .tf { fill: #323c46; overflow: visible; } .tf.pk { fill: #005aa0; font-weight: bold; } .tf.fk { font-weight: bold; } .ty { fill: #adb1b5; font-weight: normal; text-anchor: end; } .r { fill: transparent; stroke: #c3c3c3; stroke-width: 1; } .l { stroke: 1; } .i { fill: #c2c7ce; stroke: #c2c7ce; } .i.ix { fill: #afb3b6; stroke: #000; } .fa { fill: transparent; overflow: visible; } .fa .bg.hover { fill: #f7f7f7; } .c { cy: 12; r: 4; stroke: #d2d2dc; fill: #d2d2dc; } .hr { fill: transparent; stroke: #323c46; stroke-opacity: 0.035; stroke-width: 13; } .dc { stroke: #fa5a3c; fill: #fa5a3c; } .x { stroke: white; stroke-width: 1; } .hl .th { fill: #1b9bff; } .hl .tht {  } .fhl .bg { fill: #e7f4ff; } .fhls .bg {  } .r.hl { stroke: #1b9bff; } .dim { opacity: 0.25; }</style><g class="drawing-wrapper" transform="translate(2, 30.000000000000153) scale(1,1)"><g class="rs"><path d="M 193.83 87 m -1, 0 a 1,1 0 1,0 2,0 a 1,1 0 1,0 -2,0 M 193.83 87 m -0.5, 0 a 0.5,0.5 0 1,0 1,0 a 0.5,0.5 0 1,0 -1,0  M193.83 87 L193.83 87 205.83 87 M 193.83 93 m -1, 0 a 1,1 0 1,0 2,0 a 1,1 0 1,0 -2,0 M 193.83 93 m -0.5, 0 a 0.5,0.5 0 1,0 1,0 a 0.5,0.5 0 1,0 -1,0  M193.83 93 L193.83 93 200.83 87 193.83 81 M 193.83 81 m -1, 0 a 1,1 0 1,0 2,0 a 1,1 0 1,0 -2,0 M 193.83 81 m -0.5, 0 a 0.5,0.5 0 1,0 1,0 a 0.5,0.5 0 1,0 -1,0  M205.83 87 Q 235.48 87, 265.13 72 T 324.43 57 M 336.43 57 m -1, 0 a 1,1 0 1,0 2,0 a 1,1 0 1,0 -2,0 M 336.43 57 m -0.5, 0 a 0.5,0.5 0 1,0 1,0 a 0.5,0.5 0 1,0 -1,0  M336.43 57 L336.43 57 324.43 57 M330.43 63 L330.43 63 330.43 51" id="h1802558881" class="r"></path><path d="M 193.83 112 m -1, 0 a 1,1 0 1,0 2,0 a 1,1 0 1,0 -2,0 M 193.83 112 m -0.5, 0 a 0.5,0.5 0 1,0 1,0 a 0.5,0.5 0 1,0 -1,0  M193.83 112 L193.83 112 205.83 112 M 193.83 118 m -1, 0 a 1,1 0 1,0 2,0 a 1,1 0 1,0 -2,0 M 193.83 118 m -0.5, 0 a 0.5,0.5 0 1,0 1,0 a 0.5,0.5 0 1,0 -1,0  M193.83 118 L193.83 118 200.83 112 193.83 106 M 193.83 106 m -1, 0 a 1,1 0 1,0 2,0 a 1,1 0 1,0 -2,0 M 193.83 106 m -0.5, 0 a 0.5,0.5 0 1,0 1,0 a 0.5,0.5 0 1,0 -1,0  M205.83 112 C 390.294 112, 339.87 333.43, 289.87 333.43 M 277.87 333.43 m -1, 0 a 1,1 0 1,0 2,0 a 1,1 0 1,0 -2,0 M 277.87 333.43 m -0.5, 0 a 0.5,0.5 0 1,0 1,0 a 0.5,0.5 0 1,0 -1,0  M277.87 333.43 L277.87 333.43 289.87 333.43 M283.87 339.43 L283.87 339.43 283.87 327.43" id="h300002267" class="r"></path><path d="M 277.87 308.43 m -1, 0 a 1,1 0 1,0 2,0 a 1,1 0 1,0 -2,0 M 277.87 308.43 m -0.5, 0 a 0.5,0.5 0 1,0 1,0 a 0.5,0.5 0 1,0 -1,0  M277.87 308.43 L277.87 308.43 289.87 308.43 M 277.87 314.43 m -1, 0 a 1,1 0 1,0 2,0 a 1,1 0 1,0 -2,0 M 277.87 314.43 m -0.5, 0 a 0.5,0.5 0 1,0 1,0 a 0.5,0.5 0 1,0 -1,0  M277.87 314.43 L277.87 314.43 284.87 308.43 277.87 302.43 M 277.87 302.43 m -1, 0 a 1,1 0 1,0 2,0 a 1,1 0 1,0 -2,0 M 277.87 302.43 m -0.5, 0 a 0.5,0.5 0 1,0 1,0 a 0.5,0.5 0 1,0 -1,0  M289.87 308.43 Q 388.69 308.43, 487.51 184.15 T 685.15 59.86 M 697.15 59.86 m -1, 0 a 1,1 0 1,0 2,0 a 1,1 0 1,0 -2,0 M 697.15 59.86 m -0.5, 0 a 0.5,0.5 0 1,0 1,0 a 0.5,0.5 0 1,0 -1,0  M697.15 59.86 L697.15 59.86 685.15 59.86 M691.15 65.86 L691.15 65.86 691.15 53.86" id="h3262301798" class="r"></path><path d="M 483.59 82 m -1, 0 a 1,1 0 1,0 2,0 a 1,1 0 1,0 -2,0 M 483.59 82 m -0.5, 0 a 0.5,0.5 0 1,0 1,0 a 0.5,0.5 0 1,0 -1,0  M483.59 82 L483.59 82 495.59 82 M 483.59 88 m -1, 0 a 1,1 0 1,0 2,0 a 1,1 0 1,0 -2,0 M 483.59 88 m -0.5, 0 a 0.5,0.5 0 1,0 1,0 a 0.5,0.5 0 1,0 -1,0  M483.59 88 L483.59 88 490.59 82 483.59 76 M 483.59 76 m -1, 0 a 1,1 0 1,0 2,0 a 1,1 0 1,0 -2,0 M 483.59 76 m -0.5, 0 a 0.5,0.5 0 1,0 1,0 a 0.5,0.5 0 1,0 -1,0  M495.59 82 Q 542.98 82, 590.37 70.93 T 685.15 59.86 M 697.15 59.86 m -1, 0 a 1,1 0 1,0 2,0 a 1,1 0 1,0 -2,0 M 697.15 59.86 m -0.5, 0 a 0.5,0.5 0 1,0 1,0 a 0.5,0.5 0 1,0 -1,0  M697.15 59.86 L697.15 59.86 685.15 59.86 M691.15 65.86 L691.15 65.86 691.15 53.86" id="h3582207286" class="r"></path><path d="M 563.57 341.29 m -1, 0 a 1,1 0 1,0 2,0 a 1,1 0 1,0 -2,0 M 563.57 341.29 m -0.5, 0 a 0.5,0.5 0 1,0 1,0 a 0.5,0.5 0 1,0 -1,0  M563.57 341.29 L563.57 341.29 551.57 341.29 M 563.57 347.29 m -1, 0 a 1,1 0 1,0 2,0 a 1,1 0 1,0 -2,0 M 563.57 347.29 m -0.5, 0 a 0.5,0.5 0 1,0 1,0 a 0.5,0.5 0 1,0 -1,0  M563.57 347.29 L563.57 347.29 556.57 341.29 563.57 335.29 M 563.57 335.29 m -1, 0 a 1,1 0 1,0 2,0 a 1,1 0 1,0 -2,0 M 563.57 335.29 m -0.5, 0 a 0.5,0.5 0 1,0 1,0 a 0.5,0.5 0 1,0 -1,0  M551.57 341.29 C 501.57000000000005 341.29, 421.4220000000001 59.86, 685.15 59.86 M 697.15 59.86 m -1, 0 a 1,1 0 1,0 2,0 a 1,1 0 1,0 -2,0 M 697.15 59.86 m -0.5, 0 a 0.5,0.5 0 1,0 1,0 a 0.5,0.5 0 1,0 -1,0  M697.15 59.86 L697.15 59.86 685.15 59.86 M691.15 65.86 L691.15 65.86 691.15 53.86" id="h3771557284" class="r"></path><path d="M 856.96 59.86 m -1, 0 a 1,1 0 1,0 2,0 a 1,1 0 1,0 -2,0 M 856.96 59.86 m -0.5, 0 a 0.5,0.5 0 1,0 1,0 a 0.5,0.5 0 1,0 -1,0  M856.96 59.86 L856.96 59.86 868.96 59.86 M 856.96 65.86 m -1, 0 a 1,1 0 1,0 2,0 a 1,1 0 1,0 -2,0 M 856.96 65.86 m -0.5, 0 a 0.5,0.5 0 1,0 1,0 a 0.5,0.5 0 1,0 -1,0  M856.96 65.86 L856.96 65.86 863.96 59.86 856.96 53.86 M 856.96 53.86 m -1, 0 a 1,1 0 1,0 2,0 a 1,1 0 1,0 -2,0 M 856.96 53.86 m -0.5, 0 a 0.5,0.5 0 1,0 1,0 a 0.5,0.5 0 1,0 -1,0  M868.96 59.86 Q 904.97 59.86, 940.98 182.72 T 1013 305.57 M 1025 305.57 m -1, 0 a 1,1 0 1,0 2,0 a 1,1 0 1,0 -2,0 M 1025 305.57 m -0.5, 0 a 0.5,0.5 0 1,0 1,0 a 0.5,0.5 0 1,0 -1,0  M1025 305.57 L1025 305.57 1013 305.57 M1019 311.57 L1019 311.57 1019 299.57" id="h282805682" class="r"></path></g><g class="hrs"></g><g class="ts"><svg width="163.83" height="100" x="30" y="30" id="h475896179" class="t"><rect height="40" width="163.83" class="th"></rect><text x="13" y="25" class="tht">departments</text><rect height="60" width="163.83" class="t-bg"></rect><text x="13" y="61" class="tf fk">dept_noVARCHAR</text><text x="13" y="86" class="tf fk">dept_nameVARCHAR</text></svg><svg width="147.16" height="150" x="130.71" y="251.43" id="h1090417462" class="t"><rect height="40" width="147.16" class="th"></rect><text x="13" y="25" class="tht">dept_emp</text><rect height="110" width="147.16" class="t-bg"></rect><text x="13" y="61" class="tf fk">emp_noINT</text><text x="13" y="86" class="tf fk">dept_noVARCHAR</text><text x="13" y="111" class="tf">from_dateDATE</text><text x="13" y="136" class="tf">to_dateDATE</text></svg><svg width="147.16" height="150" x="336.43" y="0" id="h1676682957" class="t"><rect height="40" width="147.16" class="th"></rect><text x="13" y="25" class="tht">dept_manager</text><rect height="110" width="147.16" class="t-bg"></rect><text x="13" y="61" class="tf fk">dept_noVARCHAR</text><text x="13" y="86" class="tf fk">emp_noINT</text><text x="13" y="111" class="tf">from_dateDATE</text><text x="13" y="136" class="tf">to_dateDATE</text></svg><svg width="131.14" height="150" x="563.57" y="284.29" id="h2472833127" class="t"><rect height="40" width="131.14" class="th"></rect><text x="13" y="25" class="tht">salaries</text><rect height="110" width="131.14" class="t-bg"></rect><text x="13" y="61" class="tf fk">emp_noINT</text><text x="13" y="86" class="tf">salaryINT</text><text x="13" y="111" class="tf">from_dateDATE</text><text x="13" y="136" class="tf">to_dateDATE</text></svg><svg width="159.81" height="200" x="697.15" y="2.86" id="h1639608377" class="t"><rect height="40" width="159.81" class="th"></rect><text x="13" y="25" class="tht">employees</text><rect height="160" width="159.81" class="t-bg"></rect><text x="13" y="61" class="tf fk">emp_noINT</text><text x="13" y="86" class="tf">birth_dateDATE</text><text x="13" y="111" class="tf">first_nameVARCHAR</text><text x="13" y="136" class="tf">last_nameVARCHAR</text><text x="13" y="161" class="tf">genderVARCHAR</text><text x="13" y="186" class="tf">hire_dateDATE</text></svg><svg width="131.14" height="150" x="1025" y="248.57" id="h311790747" class="t"><rect height="40" width="131.14" class="th"></rect><text x="13" y="25" class="tht">titles</text><rect height="110" width="131.14" class="t-bg"></rect><text x="13" y="61" class="tf fk">emp_noINT</text><text x="13" y="86" class="tf">titleVARCHAR</text><text x="13" y="111" class="tf">from_dateDATE</text><text x="13" y="136" class="tf">to_dateDATE</text></svg></g></g><text class="qdbd-link" x="10" y="20">www.quickdatabasediagrams.com</text></svg>